<?xml version="1.0" encoding="utf-8"?>
<!-- Generator: Adobe Illustrator 24.0.0, SVG Export Plug-In . SVG Version: 6.00 Build 0)  -->
<svg version="1.1" xmlns="http://www.w3.org/2000/svg" xmlns:xlink="http://www.w3.org/1999/xlink" x="0px" y="0px"
	 viewBox="0 0 64 64" enable-background="new 0 0 64 64" xml:space="preserve">
<g id="Captions">
</g>
<g id="Icons">
	<g>
		<g>
			<path fill="#64C8F0" d="M10,60h44c3.314,0,6-2.686,6-6v-8c0-3.314-2.686-6-6-6H10c-3.314,0-6,2.686-6,6v8
				C4,57.314,6.686,60,10,60z"/>
		</g>
		<g>
			<path fill="#46AAD2" d="M8,54v-8c0-3.314,2.686-6,6-6h-4c-3.314,0-6,2.686-6,6v8c0,3.314,2.686,6,6,6h4C10.686,60,8,57.314,8,54z
				"/>
		</g>
		<g>
			<path fill="#FAB400" d="M40,36H24c-1.105,0-2-0.895-2-2V20c0-1.105,0.895-2,2-2h16c1.105,0,2,0.895,2,2v14
				C42,35.105,41.105,36,40,36z"/>
		</g>
		<g>
			<path fill="#DC9600" d="M24,34V20c0-1.105,0.895-2,2-2h-2c-1.105,0-2,0.895-2,2v14c0,1.105,0.895,2,2,2h2
				C24.895,36,24,35.105,24,34z"/>
		</g>
		<g>
			<path fill="#505050" d="M26,18v-6c0-1.105,0.895-2,2-2h8c1.105,0,2,0.895,2,2v6h2v-6c0-2.209-1.791-4-4-4h-8
				c-2.209,0-4,1.791-4,4v6H26z"/>
		</g>
		<g>
			<path fill="#BE7800" d="M34,26c0-1.105-0.895-2-2-2s-2,0.895-2,2c0,0.738,0.405,1.376,1,1.723V29c0,0.552,0.448,1,1,1
				s1-0.448,1-1v-1.277C33.595,27.376,34,26.738,34,26z"/>
		</g>
		<g>
			<polygon fill="#F0F0F0" points="18,49.5 15.207,49.5 17.182,47.525 16.475,46.818 14.5,48.793 14.5,46 13.5,46 13.5,48.793 
				11.525,46.818 10.818,47.525 12.793,49.5 10,49.5 10,50.5 12.793,50.5 10.818,52.475 11.525,53.182 13.5,51.207 13.5,54 14.5,54 
				14.5,51.207 16.475,53.182 17.182,52.475 15.207,50.5 18,50.5 			"/>
		</g>
		<g>
			<polygon fill="#F0F0F0" points="30,49.5 27.207,49.5 29.182,47.525 28.475,46.818 26.5,48.793 26.5,46 25.5,46 25.5,48.793 
				23.525,46.818 22.818,47.525 24.793,49.5 22,49.5 22,50.5 24.793,50.5 22.818,52.475 23.525,53.182 25.5,51.207 25.5,54 26.5,54 
				26.5,51.207 28.475,53.182 29.182,52.475 27.207,50.5 30,50.5 			"/>
		</g>
		<g>
			<polygon fill="#F0F0F0" points="42,49.5 39.207,49.5 41.182,47.525 40.475,46.818 38.5,48.793 38.5,46 37.5,46 37.5,48.793 
				35.525,46.818 34.818,47.525 36.793,49.5 34,49.5 34,50.5 36.793,50.5 34.818,52.475 35.525,53.182 37.5,51.207 37.5,54 38.5,54 
				38.5,51.207 40.475,53.182 41.182,52.475 39.207,50.5 42,50.5 			"/>
		</g>
		<g>
			<polygon fill="#F0F0F0" points="54,49.5 51.207,49.5 53.182,47.525 52.475,46.818 50.5,48.793 50.5,46 49.5,46 49.5,48.793 
				47.525,46.818 46.818,47.525 48.793,49.5 46,49.5 46,50.5 48.793,50.5 46.818,52.475 47.525,53.182 49.5,51.207 49.5,54 50.5,54 
				50.5,51.207 52.475,53.182 53.182,52.475 51.207,50.5 54,50.5 			"/>
		</g>
		<g>
			<circle fill="#3CC8B4" cx="52" cy="12" r="8"/>
		</g>
		<g>
			<path fill="#1EAA96" d="M45.983,12c0-4.082,3.059-7.443,7.009-7.932C52.666,4.027,52.336,4,52,4c-4.418,0-8,3.582-8,8
				s3.582,8,8,8c0.336,0,0.666-0.027,0.991-0.068C49.042,19.443,45.983,16.082,45.983,12z"/>
		</g>
		<g>
			<polygon fill="#F0F0F0" points="57,10 51,16 47,12 49,10 51,12 55,8 			"/>
		</g>
	</g>
</g>
</svg>
